<svg xmlns="http://www.w3.org/2000/svg" version="1.1" xmlns:xlink="http://www.w3.org/1999/xlink" xmlns:svgjs="http://svgjs.dev/svgjs" width="100%" height="100%" viewBox="0 0 1000 600"><rect width="1000" height="600" x="0" y="0" fill="#141a46"/><g><rect width="333.3333333333333" height="333.3333333333333" rx="13.333333333333334" ry="13.333333333333334" y="342.184730873178" fill="#ec8b5e" transform="matrix(0.39067072608540987,0,0,0.39067072608540987,0,101.206639954156)" x="319.96246337890625"/><path d="M558.2065102905591 433.8513895263016L597.1946043482751 433.8513895263016L597.1946043482751 449.9228176111617L576.4207954534005 449.9228176111617L576.4207954534005 567.7799569001354L597.1946043482751 567.7799569001354L597.1946043482751 583.8513849849955L539.5755584736658 583.8513849849955L539.5755584736658 567.7799569001354L558.2065102905591 567.7799569001354L558.2065102905591 477.3632929708672L518.1469876938525 570.9942425171075L503.146988147983 570.9942425171075L463.0577036474154 477.3632929708672L463.0577036474154 567.7799569001354L481.7184173681696 567.7799569001354L481.7184173681696 583.8513849849955L424.0696095896993 583.8513849849955L424.0696095896993 567.7799569001354L444.843418484574 567.7799569001354L444.843418484574 450.3394842652136Q416.5696098167646 451.6490080350911 404.8731815994498 458.8216268655564Q393.20651528599586 465.9942456960217 393.20651528599586 479.71448337587447L393.20651528599586 479.71448337587447Q393.20651528599586 486.14305460981853 396.00413424891593 490.3097211503378Q398.77199130797516 494.5061495947179 404.1291340029285 494.5061495947179L404.1291340029285 494.5061495947179Q414.21841941175734 494.5061495947179 414.21841941175734 477.57162629789315L414.21841941175734 477.57162629789315L431.36127603560806 477.57162629789315Q431.36127603560806 491.50019730477186 424.93270480166404 501.0240065402445Q418.50413356772003 510.577577679578 404.1291340029285 510.577577679578Q389.7838963419979 510.577577679578 382.9088965501411 501.5597208097398Q376.06365866214514 492.57162584376255 376.06365866214514 479.71448337587447L376.06365866214514 479.71448337587447Q376.06365866214514 458.70257925011305 396.00413424891593 446.29186534013775Q415.9148479318259 433.8513895263016 459.42675137639145 433.8513895263016L459.42675137639145 433.8513895263016L463.0577036474154 433.8513895263016L510.6469879209177 546.3513861203221L558.2065102905591 433.8513895263016Z " fill="#141a46" transform="matrix(0.39067072608540987,0,0,0.39067072608540987,0,101.206639954156)"/><path d="M868.7534800740166 441.62340914957537L897.0349985694228 441.62340914957537L897.0349985694228 453.2814396743993L881.965914668817 453.2814396743993L881.965914668817 538.773663523108L897.0349985694228 538.773663523108L897.0349985694228 550.4316940479318L855.2388002433875 550.4316940479318L855.2388002433875 538.773663523108L868.7534800740166 538.773663523108L868.7534800740166 473.1864473482653L839.6947595436222 541.1052696280728L828.8139310537865 541.1052696280728L799.7336215779758 473.1864473482653L799.7336215779758 538.773663523108L813.2698903540213 538.773663523108L813.2698903540213 550.4316940479318L771.4521030825696 550.4316940479318L771.4521030825696 538.773663523108L786.5211869831753 538.773663523108L786.5211869831753 453.58368491022804Q766.0116888376517 454.533598508547 757.5272332890299 459.73653435388513Q749.0643666858243 464.9394701992232 749.0643666858243 474.8919740361562L749.0643666858243 474.8919740361562Q749.0643666858243 479.5551862460858 751.0937275549604 482.5776386043735Q753.1014994786801 485.6216799080775 756.9875096536214 485.6216799080775L756.9875096536214 485.6216799080775Q764.3061621497609 485.6216799080775 764.3061621497609 473.3375699661797L764.3061621497609 473.3375699661797L776.741394709573 473.3375699661797Q776.741394709573 483.4411964210271 772.0781824996434 490.3496589542561Q767.4149702897139 497.27971043290137 756.9875096536214 497.27971043290137Q746.5816379629453 497.27971043290137 741.5945915717705 490.7382599717502Q736.6291341260122 484.21839845601534 736.6291341260122 474.8919740361562L736.6291341260122 474.8919740361562Q736.6291341260122 459.6501785722198 751.0937275549604 450.6475883336057Q765.5367320384923 441.62340914957537 797.0997702371822 441.62340914957537L797.0997702371822 441.62340914957537L799.7336215779758 441.62340914957537L834.2543452987044 523.2296228233428L868.7534800740166 441.62340914957537ZM915.3856021733122 540.5655459926643Q905.5842209542936 529.1449938674201 905.5842209542936 511.57159229851885Q905.5842209542936 493.99819072961765 915.3856021733122 482.5776386043735Q925.186983392331 471.1570864791293 942.8899186337302 471.1570864791293Q960.6144428205458 471.1570864791293 970.4158240395644 482.5776386043735Q980.1956163131667 493.99819072961765 980.1956163131667 511.57159229851885Q980.1956163131667 529.1449938674201 970.4158240395644 540.5655459926643Q960.6144428205458 551.9860981179085 942.8899186337302 551.9860981179085Q925.186983392331 551.9860981179085 915.3856021733122 540.5655459926643ZM925.186983392331 490.8893825896646Q918.7966555490941 498.9852371207923 918.7966555490941 511.57159229851885Q918.7966555490941 524.1579474762455 925.186983392331 532.2538020073732Q931.5557222901514 540.3280675930846 942.8899186337302 540.3280675930846Q954.2457039227254 540.3280675930846 960.6144428205458 532.2538020073732Q966.9831817183663 524.1579474762455 966.9831817183663 511.57159229851885Q966.9831817183663 498.9852371207923 960.6144428205458 490.8893825896646Q954.2457039227254 482.8151170039532 942.8899186337302 482.8151170039532Q931.5557222901514 482.8151170039532 925.186983392331 490.8893825896646ZM1013.939137998907 492.1415414238123L1013.939137998907 540.3280675930846L1027.4538178295363 540.3280675930846L1027.4538178295363 550.4316940479318L988.7448386980376 550.4316940479318L988.7448386980376 540.3280675930846L1000.7267034041066 540.3280675930846L1000.7267034041066 482.8151170039532L988.7448386980376 482.8151170039532L988.7448386980376 472.7114905491058L1010.9814524768684 472.7114905491058L1012.8381017826737 480.9584676981479Q1018.1273934096771 478.0007821761093 1021.3873241675446 476.36002232446737Q1024.6688438708284 474.7408514182418 1030.800104369069 472.94896894868555Q1036.9313648673096 471.1570864791293 1042.695613293473 471.1570864791293L1042.695613293473 471.1570864791293Q1056.0591705061875 471.1570864791293 1061.1109837336112 479.0802294469263Q1066.162796961035 487.0033724147233 1066.162796961035 500.993009044512L1066.162796961035 500.993009044512L1066.162796961035 541.1052696280728L1078.9002747566758 541.1052696280728L1078.9002747566758 547.6251311438077Q1073.1576152759294 551.2088960829201 1065.6230733256264 551.2088960829201Q1058.0885313753236 551.2088960829201 1055.5194468707791 548.6398115783757Q1052.9503623662345 546.0707270738311 1052.9503623662345 540.3280675930846L1052.9503623662345 540.3280675930846L1052.9503623662345 500.993009044512Q1052.9503623662345 491.99041880589795 1050.6187562612697 487.3919734322174Q1048.287150156305 482.8151170039532 1039.8890503893485 482.8151170039532Q1031.4909506223921 482.8151170039532 1013.939137998907 492.1415414238123L1013.939137998907 492.1415414238123ZM1156.167110401759 551.9860981179085L1156.167110401759 551.9860981179085Q1145.4374045298377 551.9860981179085 1139.3709108678459 545.8548376196677Q1133.3044172058542 539.7019881760107 1133.3044172058542 529.3608833215835Q1133.3044172058542 519.0413674125728 1141.400271736982 512.0465490976783Q1149.4745373226933 505.05173078278403 1165.3424122037036 505.05173078278403L1165.3424122037036 505.05173078278403L1182.2681454101146 505.05173078278403L1182.2681454101146 497.10699886957065Q1182.2681454101146 482.8151170039532 1168.6023429615711 482.8151170039532L1168.6023429615711 482.8151170039532Q1157.0954350546615 482.8151170039532 1147.4667653989736 485.6216799080775L1147.4667653989736 485.6216799080775L1147.4667653989736 496.02755159875363L1136.585936909138 496.02755159875363L1136.585936909138 477.52582537694974Q1143.5807552240324 474.5681398549111 1153.1230690980547 472.8626131670202Q1162.6869719174938 471.1570864791293 1169.0557108153143 471.1570864791293L1169.0557108153143 471.1570864791293Q1181.4909433751263 471.1570864791293 1188.4857616900208 478.238260575689Q1195.480580004915 485.29784572683235 1195.480580004915 497.10699886957065L1195.480580004915 497.10699886957065L1195.480580004915 541.1052696280728L1208.2396467459723 541.1052696280728L1208.2396467459723 547.6251311438077Q1202.4753983198093 551.2088960829201 1195.0272121511719 551.2088960829201Q1187.5574370371182 551.2088960829201 1184.9235856963246 548.726167360041Q1182.2681454101146 546.2434386371618 1182.2681454101146 540.3280675930846L1182.2681454101146 540.3280675930846Q1170.6101148852908 551.9860981179085 1156.167110401759 551.9860981179085ZM1157.570391853821 540.3280675930846L1157.570391853821 540.3280675930846Q1170.9339490665357 540.3280675930846 1182.2681454101146 525.2589836924788L1182.2681454101146 525.2589836924788L1182.2681454101146 515.3064798555458L1165.1697006403729 515.3064798555458Q1155.6921536025993 515.3064798555458 1151.1152971743352 519.0413674125728Q1146.5168518006546 522.7546660241833 1146.5168518006546 528.4325586686809Q1146.5168518006546 534.1104513131784 1149.3234147047788 537.2192594531315Q1152.1299776089031 540.3280675930846 1157.570391853821 540.3280675930846ZM1224.8631347165547 482.8151170039532L1212.902858955902 482.8151170039532L1212.902858955902 472.7114905491058L1235.1178837893165 472.7114905491058L1237.2983672763667 482.18903758687935Q1246.6247916962259 471.1570864791293 1261.2405077430885 471.1570864791293Q1275.856223789951 471.1570864791293 1283.779366757748 482.4265159864591Q1291.702509725545 493.6959454937889 1291.702509725545 511.3341138989391Q1291.702509725545 528.9722823040894 1282.376085305686 540.4791902109989Q1273.0496608858268 551.9860981179085 1255.8000934981706 551.9860981179085L1255.8000934981706 551.9860981179085Q1247.7258279124594 551.9860981179085 1238.0755693113551 548.8772899779553L1238.0755693113551 548.8772899779553L1238.0755693113551 573.7477550975798L1250.057434017424 573.7477550975798L1250.057434017424 583.8513815524273L1212.902858955902 583.8513815524273L1212.902858955902 573.7477550975798L1224.8631347165547 573.7477550975798L1224.8631347165547 482.8151170039532ZM1278.4900751307446 512.1113159339274Q1278.4900751307446 499.28748235662107 1273.3734950670719 491.0620941529953Q1268.235326057983 482.8151170039532 1258.9952574197891 482.8151170039532Q1249.733599836179 482.8151170039532 1243.904584573767 490.11218055467634Q1238.0755693113551 497.4308330508158 1238.0755693113551 507.68558212357755L1238.0755693113551 507.68558212357755L1238.0755693113551 535.5137327652405Q1246.4736690783116 540.3280675930846 1254.7206462273537 540.3280675930846L1254.7206462273537 540.3280675930846Q1265.4287631538587 540.3280675930846 1271.97021361501 532.6424030248672Q1278.4900751307446 524.9351495112337 1278.4900751307446 512.1113159339274ZM1312.233596816485 482.8151170039532L1300.251732110416 482.8151170039532L1300.251732110416 472.7114905491058L1322.4883458892468 472.7114905491058L1324.6688293762973 482.18903758687935Q1333.9952537961562 471.1570864791293 1348.5893808976025 471.1570864791293Q1363.2050969444651 471.1570864791293 1371.128239912262 482.4265159864591Q1379.0729718254754 493.6959454937889 1379.0729718254754 511.3341138989391Q1379.0729718254754 528.9722823040894 1369.7465474056162 540.4791902109989Q1360.4201229857572 551.9860981179085 1343.1489666526847 551.9860981179085L1343.1489666526847 551.9860981179085Q1335.0747010669734 551.9860981179085 1325.4460314112855 548.8772899779553L1325.4460314112855 548.8772899779553L1325.4460314112855 573.7477550975798L1337.406307171938 573.7477550975798L1337.406307171938 583.8513815524273L1300.251732110416 583.8513815524273L1300.251732110416 573.7477550975798L1312.233596816485 573.7477550975798L1312.233596816485 482.8151170039532ZM1365.860537230675 512.1113159339274Q1365.860537230675 499.28748235662107 1360.7223682215858 491.0620941529953Q1355.584199212497 482.8151170039532 1346.344130574303 482.8151170039532Q1337.1040619361092 482.8151170039532 1331.2750466736975 490.11218055467634Q1325.4460314112855 497.4308330508158 1325.4460314112855 507.68558212357755L1325.4460314112855 507.68558212357755L1325.4460314112855 535.5137327652405Q1333.8225422328255 540.3280675930846 1342.0695193818676 540.3280675930846L1342.0695193818676 540.3280675930846Q1352.799225253789 540.3280675930846 1359.319086769524 532.6424030248672Q1365.860537230675 524.9351495112337 1365.860537230675 512.1113159339274ZM1399.7335925889133 443.9550152545401L1387.7733168282607 443.9550152545401L1387.7733168282607 433.85138879969276L1412.9460271837138 433.85138879969276L1412.9460271837138 540.3280675930846L1426.4822959597595 540.3280675930846L1426.4822959597595 550.4316940479318L1387.6221942103464 550.4316940479318L1387.6221942103464 540.3280675930846L1399.7335925889133 540.3280675930846L1399.7335925889133 443.9550152545401ZM1448.6973207931737 482.8151170039532L1436.737045032521 482.8151170039532L1436.737045032521 472.7114905491058L1461.9097553879742 472.7114905491058L1461.9097553879742 540.3280675930846L1475.44602416402 540.3280675930846L1475.44602416402 550.4316940479318L1436.5859224146068 550.4316940479318L1436.5859224146068 540.3280675930846L1448.6973207931737 540.3280675930846L1448.6973207931737 482.8151170039532ZM1454.9149370730797 458.8729765372315Q1451.503883697298 458.8729765372315 1449.3234002102477 456.39024781435234Q1447.1429167231972 453.90751909147315 1447.1429167231972 450.410109934026Q1447.1429167231972 446.9127007765788 1449.5608786098276 444.25726049036894Q1451.9572515510413 441.62340914957537 1455.3898938722396 441.62340914957537Q1458.8009472480212 441.62340914957537 1460.9814307350716 444.10613787245455Q1463.161914222122 446.5888665953337 1463.161914222122 450.08627575278086Q1463.161914222122 453.58368491022804 1460.743952335492 456.2391251964379Q1458.347579394278 458.8729765372315 1454.9149370730797 458.8729765372315ZM1587.967607673987 441.62340914957537L1587.967607673987 441.62340914957537L1631.9658784324893 441.62340914957537L1631.9658784324893 466.79611950502846L1620.4589705255794 466.79611950502846L1620.4589705255794 453.2814396743993L1596.516830058858 453.2814396743993L1596.516830058858 538.773663523108L1611.6075029048798 538.773663523108L1611.6075029048798 550.4316940479318L1569.6385930155138 550.4316940479318L1569.6385930155138 538.773663523108L1583.3043954640575 538.773663523108L1583.3043954640575 453.2814396743993L1574.7551730791865 453.2814396743993Q1555.6489563857253 454.533598508547 1547.7905802541773 459.80130119013415Q1539.9537930680456 465.0905928171376 1539.9537930680456 474.8919740361562L1539.9537930680456 474.8919740361562Q1539.9537930680456 479.5551862460858 1541.961564991765 482.5776386043735Q1543.9909258609014 485.6216799080775 1547.8769360358424 485.6216799080775L1547.8769360358424 485.6216799080775Q1555.1739995865655 485.6216799080775 1555.1739995865655 473.3375699661797L1555.1739995865655 473.3375699661797L1567.6092321463777 473.3375699661797Q1567.6092321463777 483.4411964210271 1562.9460199364482 490.3496589542561Q1558.2828077265185 497.27971043290137 1547.8769360358424 497.27971043290137Q1537.44947539975 497.27971043290137 1532.4840179539915 490.7382599717502Q1527.5185605082333 484.21839845601534 1527.5185605082333 474.8919740361562L1527.5185605082333 474.8919740361562Q1527.5185605082333 459.6501785722198 1541.961564991765 450.6475883336057Q1556.4261584207134 441.62340914957537 1587.967607673987 441.62340914957537ZM1665.5366885548985 490.8893825896646L1665.5366885548985 540.3280675930846L1679.0729573309443 540.3280675930846L1679.0729573309443 550.4316940479318L1640.3639781994457 550.4316940479318L1640.3639781994457 540.3280675930846L1652.3242539600983 540.3280675930846L1652.3242539600983 482.8151170039532L1640.3639781994457 482.8151170039532L1640.3639781994457 472.7114905491058L1662.5790030328599 472.7114905491058L1664.4572412840816 480.9584676981479Q1669.746532911085 478.0007821761093 1673.0064636689526 476.36002232446737Q1676.26639442682 474.7408514182418 1682.3976549250606 472.94896894868555Q1688.5505043687176 471.1570864791293 1694.2931638494642 471.1570864791293L1694.2931638494642 471.1570864791293L1702.9935088522495 473.48869258409405L1699.4313328585536 486.22617037973504L1692.436514543659 484.3695210739297Q1679.375202566773 484.3695210739297 1665.5366885548985 490.8893825896646L1665.5366885548985 490.8893825896646ZM1730.1955800768387 551.9860981179085L1730.1955800768387 551.9860981179085Q1719.487463150334 551.9860981179085 1713.420969488342 545.8548376196677Q1707.3544758263502 539.7019881760107 1707.3544758263502 529.3608833215835Q1707.3544758263502 519.0413674125728 1715.4287414120618 512.0465490976783Q1723.5245959431895 505.05173078278403 1739.3708818787836 505.05173078278403L1739.3708818787836 505.05173078278403L1756.3182040306108 505.05173078278403L1756.3182040306108 497.10699886957065Q1756.3182040306108 482.8151170039532 1742.630812636651 482.8151170039532L1742.630812636651 482.8151170039532Q1731.1454936751577 482.8151170039532 1721.4952350740534 485.6216799080775L1721.4952350740534 485.6216799080775L1721.4952350740534 496.02755159875363L1710.6144065842177 496.02755159875363L1710.6144065842177 477.52582537694974Q1717.6092248991122 474.5681398549111 1727.173127718551 472.8626131670202Q1736.73703053799 471.1570864791293 1743.1057694358105 471.1570864791293L1743.1057694358105 471.1570864791293Q1755.5410019956225 471.1570864791293 1762.535820310517 478.238260575689Q1769.5306386254115 485.29784572683235 1769.5306386254115 497.10699886957065L1769.5306386254115 497.10699886957065L1769.5306386254115 541.1052696280728L1782.2681164210521 541.1052696280728L1782.2681164210521 547.6251311438077Q1776.5254569403055 551.2088960829201 1769.0556818262517 551.2088960829201Q1761.6074956576144 551.2088960829201 1758.9520553714044 548.726167360041Q1756.3182040306108 546.2434386371618 1756.3182040306108 540.3280675930846L1756.3182040306108 540.3280675930846Q1744.660173505787 551.9860981179085 1730.1955800768387 551.9860981179085ZM1731.5988615289011 540.3280675930846L1731.5988615289011 540.3280675930846Q1744.9624187416157 540.3280675930846 1756.3182040306108 525.2589836924788L1756.3182040306108 525.2589836924788L1756.3182040306108 515.3064798555458L1739.219759260869 515.3064798555458Q1729.7422122230955 515.3064798555458 1725.143766849415 519.0413674125728Q1720.5669104211509 522.7546660241833 1720.5669104211509 528.4325586686809Q1720.5669104211509 534.1104513131784 1723.373473325275 537.2192594531315Q1726.1584472839832 540.3280675930846 1731.5988615289011 540.3280675930846ZM1812.1256279318513 492.1415414238123L1812.1256279318513 540.3280675930846L1825.6403077624805 540.3280675930846L1825.6403077624805 550.4316940479318L1786.9313286309816 550.4316940479318L1786.9313286309816 540.3280675930846L1798.9131933370509 540.3280675930846L1798.9131933370509 482.8151170039532L1786.9313286309816 482.8151170039532L1786.9313286309816 472.7114905491058L1809.167942409813 472.7114905491058L1811.024591715618 480.9584676981479Q1816.3138833426215 478.0007821761093 1819.5738141004886 476.36002232446737Q1822.8553338037727 474.7408514182418 1828.9865943020131 472.94896894868555Q1835.117854800254 471.1570864791293 1840.8821032264168 471.1570864791293L1840.8821032264168 471.1570864791293Q1854.2456604391318 471.1570864791293 1859.2974736665556 479.0802294469263Q1864.3492868939793 487.0033724147233 1864.3492868939793 500.993009044512L1864.3492868939793 500.993009044512L1864.3492868939793 541.1052696280728L1877.08676468962 541.1052696280728L1877.08676468962 547.6251311438077Q1871.3441052088733 551.2088960829201 1863.8095632585705 551.2088960829201Q1856.2750213082677 551.2088960829201 1853.705936803723 548.6398115783757Q1851.1368522991788 546.0707270738311 1851.1368522991788 540.3280675930846L1851.1368522991788 540.3280675930846L1851.1368522991788 500.993009044512Q1851.1368522991788 491.99041880589795 1848.8052461942139 487.3919734322174Q1846.4736400892493 482.8151170039532 1838.0755403222925 482.8151170039532Q1829.677440555336 482.8151170039532 1812.1256279318513 492.1415414238123L1812.1256279318513 492.1415414238123ZM1884.858785039503 545.9196044559167L1884.858785039503 528.0439576511867L1895.7396135293384 528.0439576511867L1895.7396135293384 537.8453388702053Q1901.6549845734157 540.1769449751702 1910.1178511766211 540.1769449751702Q1918.6023067252431 540.1769449751702 1923.028040535593 537.4567378527113Q1927.4537743459427 534.7365307302523 1927.4537743459427 530.6993979373966Q1927.4537743459427 526.6406761991245 1924.10748780641 524.0931806399965Q1920.7827902122935 521.5240961354518 1908.261201870816 514.8315230563862Q1895.7396135293384 508.16053892273703 1890.7741560835798 503.5620935490565Q1885.8086986378216 498.9852371207923 1885.8086986378216 491.51546200673846L1885.8086986378216 491.51546200673846Q1885.8086986378216 481.8867923510506 1893.3432405881244 476.51114494238175Q1900.8777825384273 471.1570864791293 1913.9390945153136 471.1570864791293Q1927.0004064921995 471.1570864791293 1938.6584370170235 477.52582537694974L1938.6584370170235 477.52582537694974L1938.6584370170235 496.02755159875363L1927.7776085271876 496.02755159875363L1927.7776085271876 485.6216799080775Q1920.933912830208 482.8151170039532 1913.2266593165741 482.8151170039532Q1905.5409947483572 482.8151170039532 1902.2810639904897 485.68644674432653Q1899.021133232622 488.5577764846998 1899.021133232622 491.99041880589795Q1899.021133232622 495.40147218167976 1901.5038619555016 497.4308330508158L1901.5038619555016 497.4308330508158Q1905.6921173662713 500.84188642659757 1916.5729458561068 506.28230067151543L1916.5729458561068 506.28230067151543Q1930.4114598679812 513.9031984034837 1935.5496288770705 518.5664106134132Q1940.6662089407432 523.2296228233428 1940.6662089407432 530.5266863740659L1940.6662089407432 530.5266863740659Q1940.6662089407432 540.1769449751702 1932.4408207371175 546.005960237582Q1924.1938435880752 551.834975499994 1909.5133607049638 551.834975499994Q1894.8112888764358 551.834975499994 1884.858785039503 545.9196044559167L1884.858785039503 545.9196044559167ZM1961.9744980666715 482.8151170039532L1949.9926333606022 482.8151170039532L1949.9926333606022 472.7114905491058L1972.229247139433 472.7114905491058L1974.4097306264835 482.18903758687935Q1983.7361550463424 471.1570864791293 1998.3302821477887 471.1570864791293Q2012.9459981946516 471.1570864791293 2020.8691411624486 482.4265159864591Q2028.8138730756618 493.6959454937889 2028.8138730756618 511.3341138989391Q2028.8138730756618 528.9722823040894 2019.4874486558028 540.4791902109989Q2010.1610242359434 551.9860981179085 1992.8898679028707 551.9860981179085L1992.8898679028707 551.9860981179085Q1984.8156023171596 551.9860981179085 1975.186932661472 548.8772899779553L1975.186932661472 548.8772899779553L1975.186932661472 573.7477550975798L1987.1472084221245 573.7477550975798L1987.1472084221245 583.8513815524273L1949.9926333606022 583.8513815524273L1949.9926333606022 573.7477550975798L1961.9744980666715 573.7477550975798L1961.9744980666715 482.8151170039532ZM2015.6014384808614 512.1113159339274Q2015.6014384808614 499.28748235662107 2010.463269471772 491.0620941529953Q2005.3251004626832 482.8151170039532 1996.0850318244893 482.8151170039532Q1986.844963186296 482.8151170039532 1981.0159479238837 490.11218055467634Q1975.186932661472 497.4308330508158 1975.186932661472 507.68558212357755L1975.186932661472 507.68558212357755L1975.186932661472 535.5137327652405Q1983.5634434830122 540.3280675930846 1991.810420632054 540.3280675930846L1991.810420632054 540.3280675930846Q2002.5401265039754 540.3280675930846 2009.05998801971 532.6424030248672Q2015.6014384808614 524.9351495112337 2015.6014384808614 512.1113159339274ZM2049.4744938390995 540.5655459926643Q2039.6947015654973 529.1449938674201 2039.6947015654973 511.57159229851885Q2039.6947015654973 493.99819072961765 2049.4744938390995 482.5776386043735Q2059.2758750581183 471.1570864791293 2077.0003992449338 471.1570864791293Q2094.703334486333 471.1570864791293 2104.504715705352 482.5776386043735Q2114.3060969243706 493.99819072961765 2114.3060969243706 511.57159229851885Q2114.3060969243706 529.1449938674201 2104.504715705352 540.5655459926643Q2094.703334486333 551.9860981179085 2077.0003992449338 551.9860981179085Q2059.2758750581183 551.9860981179085 2049.4744938390995 540.5655459926643ZM2059.2758750581183 490.8893825896646Q2052.907136160298 498.9852371207923 2052.907136160298 511.57159229851885Q2052.907136160298 524.1579474762455 2059.2758750581183 532.2538020073732Q2065.644613955939 540.3280675930846 2077.0003992449338 540.3280675930846Q2088.334595588513 540.3280675930846 2094.703334486333 532.2538020073732Q2101.09366232957 524.1579474762455 2101.09366232957 511.57159229851885Q2101.09366232957 498.9852371207923 2094.703334486333 490.8893825896646Q2088.334595588513 482.8151170039532 2077.0003992449338 482.8151170039532Q2065.644613955939 482.8151170039532 2059.2758750581183 490.8893825896646ZM2148.0280296646943 490.8893825896646L2148.0280296646943 540.3280675930846L2161.542709495324 540.3280675930846L2161.542709495324 550.4316940479318L2122.8553193092416 550.4316940479318L2122.8553193092416 540.3280675930846L2134.8155950698942 540.3280675930846L2134.8155950698942 482.8151170039532L2122.8553193092416 482.8151170039532L2122.8553193092416 472.7114905491058L2145.070344142656 472.7114905491058L2146.9485823938776 480.9584676981479Q2152.216285075465 478.0007821761093 2155.4978047787486 476.36002232446737Q2158.7577355366157 474.7408514182418 2164.8889960348565 472.94896894868555Q2171.0418454785136 471.1570864791293 2176.78450495926 471.1570864791293L2176.78450495926 471.1570864791293L2185.4848499620452 473.48869258409405L2181.9226739683495 486.22617037973504L2174.927855653455 484.3695210739297Q2161.8665436765687 484.3695210739297 2148.0280296646943 490.8893825896646L2148.0280296646943 490.8893825896646ZM2201.8060926967987 482.8151170039532L2188.2914128661696 482.8151170039532L2188.2914128661696 474.2658946190823L2200.251688626822 472.7114905491058L2201.8060926967987 472.7114905491058Q2206.7931390879735 461.0534600242819 2208.4986657758645 452.20199240358227L2208.4986657758645 452.20199240358227L2215.018527291599 452.20199240358227L2215.018527291599 472.7114905491058L2238.1834657233326 472.7114905491058L2238.1834657233326 482.8151170039532L2215.018527291599 482.8151170039532L2215.018527291599 530.5266863740659Q2215.018527291599 535.8159780010694 2216.810409761156 538.1475841060342Q2218.602292230712 540.4791902109989 2222.9416702593962 540.4791902109989Q2227.302637233497 540.4791902109989 2234.59970078422 537.5215046889602L2234.59970078422 537.5215046889602L2239.7378697933095 546.3945612550763Q2230.8864021726095 551.9860981179085 2220.7827757177624 551.9860981179085Q2210.679149262915 551.9860981179085 2206.231826507149 546.6968064909049Q2201.8060926967987 541.4075148639015 2201.8060926967987 533.0310040423615L2201.8060926967987 533.0310040423615L2201.8060926967987 482.8151170039532Z " fill="#ec8b5e" transform="matrix(0.39067072608540987,0,0,0.39067072608540987,0,101.206639954156)"/></g></svg>