<?xml version="1.0" encoding="UTF-8"?>
<!DOCTYPE svg PUBLIC "-//W3C//DTD SVG 1.1//EN" "http://www.w3.org/Graphics/SVG/1.1/DTD/svg11.dtd">
<svg version="1.1" xmlns="http://www.w3.org/2000/svg" xmlns:xlink="http://www.w3.org/1999/xlink" x="0px" y="0px" viewBox="0 0 210.1 71.3" enable-background="new 0 0 210.1 71.3" xml:space="preserve" class="logo-reseau-astuce" width="210" height="71" role="img">
    <title>Réseau Astuce</title>
    <g>
        <path fill="#B0105F" d="M38,28.5v33.7c7.3,0,13.8-3.7,13.8-8.2V35.4c0-9.8,10.7-17.4,17.7-17.4c7,0,12.7,0,12.7,0V2.8h9V18h22.3
		    v20.2c0,1.7,0.8,3.5,2.3,5.3c2,2.3,4.5,3.5,7.6,3.5c2.7,0,5.1-0.9,7.1-2.7c2-1.8,3-3.8,3-6.1V18h9v14.7c0.8-3.4,2.6-6.5,5.3-9.1
		    c3.9-3.7,8.3-5.6,13.2-5.6c1.5,0,3.2,0.3,5.1,0.8c1.9,0.6,4,1.5,6.4,2.7v11c-3.5-2.3-6.2-3.9-8.2-4.8c-1.3-0.6-2.3-0.8-3.2-0.8
		    c-2.8,0-5.2,1-7.1,3.1c-1.9,2.1-2.9,4.4-2.9,7c0,2.5,0.9,4.8,2.8,6.8c1.9,2,4.3,3,7.2,3c1.3,0,2.5-0.3,3.7-0.8
		    c1.6-0.7,4.2-2.3,7.7-4.7v0c0.7-9.7,8.9-17.4,18.8-17.4c10.4,0,18.9,8.5,18.9,18.9v3.9h-28.8v4.7c0,3.7,3.1,9.1,13.2,9.1
		    c0.1,0,0.3,0,15.6,0v9h-17.9c-11.6,0-18.3-7.2-19.8-17.1c-2.8,1.5-4.9,2.4-6.3,2.8c-1.4,0.4-3.1,0.5-5.1,0.5
		    c-5.3,0-9.8-1.8-13.5-5.4c-2.6-2.5-4.2-5.5-5-8.9v22.1h-9V53.6c-1.4,0.8-2.8,1.4-4.4,1.8c-1.6,0.4-3.4,0.6-5.6,0.6
		    c-5.2,0-9.6-1.8-13.4-5.4c-3.8-3.6-5.6-7.7-5.6-12.2V27H91.1v18.6c0,4,4.4,9,13.6,9l0,0v9h-2.5c-15.7,0-20.1-12.4-20.1-18.2V27
		    h-7.3c-11.2,0-14,6.2-14,9.1c0,2.9,0,17.4,0,17.4c0,8.7-8.8,17.8-18.6,17.8l-4.2,0h-9.2V61.2C27.5,62,26,62.6,24.5,63
		    c-1.5,0.4-3.4,0.6-5.5,0.6c-5.3,0-9.8-1.8-13.5-5.4C1.8,54.7,0,50.2,0,44.9c0-5.2,1.9-9.7,5.8-13.5c3.8-3.7,8.2-5.6,13.1-5.6
		    c1.9,0,3.7,0.2,5.2,0.7c1.5,0.4,3.1,1.2,4.8,2.3c0-2.8-1.3-5-3.8-6.8c-2.5-1.7-5.7-2.6-9.6-2.6l0-0.1v-8.8h5.2
		    C31,10.5,38,20.6,38,28.3 M19,35c-5.4,0-9.9,4.4-9.9,9.9c0,5.4,4.4,9.9,9.9,9.9c5.4,0,9.9-4.4,9.9-9.9C28.9,39.4,24.5,35,19,35z
		     M199,37.6c-2.9-4.8-7.8-4.8-7.8-4.8s-5,0-7.8,4.8H199z"></path>
        <path fill="#717271" d="M95,3.3h3.8c1.1,0,1.9,0.1,2.6,0.4c0.7,0.3,1.2,0.6,1.5,1.2c0.4,0.5,0.6,1.1,0.6,1.8c0,0.7-0.2,1.3-0.7,1.9
		    c-0.4,0.5-1.1,1-2,1.2l3,5.8h-1.3L99.5,10h-3.4v5.6H95V3.3z M96.2,4.3v4.6h2.6c0.6,0,1.3-0.1,1.9-0.3c0.5-0.2,0.8-0.4,1-0.8
		    c0.2-0.4,0.4-0.8,0.4-1.3c0-0.7-0.2-1.2-0.7-1.6c-0.5-0.4-1.2-0.6-2.2-0.6H96.2z"></path>
        <path fill="#717271" d="M109,3.3h7.2v1.2h-6v4h4.5v1.2h-4.5v4.7h6.6v1.2H109V3.3z M113.2,0h2.1L112,2.5h-1L113.2,0z"></path>
        <path fill="#717271" d="M122.6,12.1c0.1,0.5,0.3,0.9,0.5,1.1c0.3,0.4,0.7,0.8,1.1,1c0.5,0.3,1,0.4,1.7,0.4c0.9,0,1.6-0.2,2.1-0.7
		    c0.5-0.5,0.8-1,0.8-1.7c0-0.6-0.2-1.1-0.7-1.5c-0.4-0.3-1.1-0.6-2.2-0.9c-1.5-0.4-2.5-0.9-3.2-1.5c-0.6-0.6-0.9-1.2-0.9-2.1
		    c0-0.9,0.3-1.7,1.1-2.3c0.7-0.6,1.6-1,2.8-1c0.7,0,1.4,0.1,2,0.4c0.6,0.3,1.1,0.6,1.5,1.2c0.3,0.4,0.5,0.8,0.7,1.4l-1.2,0.4
		    c-0.2-0.7-0.6-1.3-1.1-1.7c-0.5-0.4-1.1-0.6-1.9-0.6c-0.8,0-1.4,0.2-1.8,0.6c-0.5,0.4-0.7,0.9-0.7,1.5c0,0.5,0.2,0.9,0.6,1.3
		    c0.4,0.4,1.2,0.7,2.5,1.1c1.5,0.4,2.5,0.9,3.1,1.5c0.6,0.6,0.8,1.3,0.8,2.2c0,1-0.4,1.8-1.2,2.5c-0.8,0.7-1.8,1-3.1,1
		    c-0.8,0-1.5-0.2-2.2-0.5c-0.7-0.3-1.2-0.8-1.6-1.3c-0.3-0.4-0.5-0.9-0.7-1.6L122.6,12.1z"></path>
        <polygon fill="#717271" points="135.7,3.3 143,3.3 143,4.4 136.9,4.4 136.9,8.4 141.4,8.4 141.4,9.6 136.9,9.6 136.9,14.3
		    143.5,14.3 143.5,15.5 135.7,15.5"></polygon>
        <path fill="#717271" d="M151.5,3.3h1.9l3.9,12.3h-1.2l-1.2-3.8h-5l-1.2,3.8h-1.2L151.5,3.3z M152.4,4.1l-2.1,6.5h4.2L152.4,4.1z"></path>
        <path fill="#717271" d="M161.3,3.3h1.2v8c0,1,0.3,1.8,0.9,2.4c0.6,0.6,1.4,0.9,2.3,0.9c0.8,0,1.4-0.1,1.9-0.4
		    c0.5-0.3,0.9-0.7,1.1-1.2c0.2-0.5,0.4-1.1,0.4-1.7v-8h1.2v8c0,1.4-0.4,2.5-1.2,3.3c-0.8,0.8-1.9,1.2-3.2,1.2c-1.1,0-2-0.2-2.7-0.7
		    c-0.7-0.5-1.2-1-1.5-1.7c-0.3-0.7-0.4-1.3-0.4-1.9V3.3z"></path>
    </g>
</svg>
